<mxfile host="app.diagrams.net" modified="2023-04-19T15:22:42.410Z" agent="Mozilla/5.0 (Macintosh; Intel Mac OS X 10_15_7) AppleWebKit/537.36 (KHTML, like Gecko) Chrome/112.0.0.0 Safari/537.36" version="21.1.7" etag="K1rYXlhSyzzVNtnYQ6qt" type="github">
  <diagram name="Page-1" id="r1omNOersCGJ-yCNLzzM">
    <mxGraphModel>
      <root>
        <mxCell id="0" />
        <mxCell id="1" parent="0" />
      </root>
    </mxGraphModel>
  </diagram>
</mxfile>
